/vscmnt/brussel_pixiu_data/_data_brussel/112/vsc11236/PredSimResults/SUBJ11mtu3D/worker6.mot
version=1
nRows=11
nColumns=50
inDegrees=yes
endheader
                time	         pelvis_tilt	         pelvis_list	     pelvis_rotation	           pelvis_tx	           pelvis_ty	           pelvis_tz	       hip_flexion_r	     hip_adduction_r	      hip_rotation_r	        knee_angle_r	       ankle_angle_r	         mtp_angle_r	       hip_flexion_l	     hip_adduction_l	      hip_rotation_l	        knee_angle_l	       ankle_angle_l	         mtp_angle_l	    lumbar_extension	      lumbar_bending	     lumbar_rotation	 ercspn_r/activation	 intobl_r/activation	 extobl_r/activation	    abd_r/activation	    add_r/activation	hamstrings_r/activation	bifemsh_r/activation	glut_max_r/activation	iliopsoas_r/activation	rect_fem_r/activation	  vasti_r/activation	gastroc_r/activation	 soleus_r/activation	tib_ant_r/activation	 ercspn_l/activation	 intobl_l/activation	 extobl_l/activation	    abd_l/activation	    add_l/activation	hamstrings_l/activation	bifemsh_l/activation	glut_max_l/activation	iliopsoas_l/activation	rect_fem_l/activation	  vasti_l/activation	gastroc_l/activation	 soleus_l/activation	tib_ant_l/activation	
          0.00000000	         -3.60604271	         -1.01644722	          6.15327248	          0.00000000	          0.94053777	         -0.00859674	         30.97468650	         -2.41560506	         -3.71156604	         -8.50176210	          2.67980154	          0.26723038	        -13.72001270	         -3.18170607	         -0.05111437	        -11.67391095	         12.06779997	         29.38161240	        -13.91518676	         -1.06035646	         -3.79257772	          0.04070663	          0.19071991	          0.04799005	          0.01000194	          0.18185789	          0.05517993	          0.14132533	          0.08848974	          0.05647255	          0.02931159	          0.01001256	          0.01001032	          0.01000172	          0.44762483	          0.01897411	          0.01000810	          0.01000824	          0.03378822	          0.02388254	          0.01447345	          0.22476647	          0.01604279	          0.12274506	          0.01012833	          0.01001146	          0.14404312	          0.27385480	          0.01224664	
          0.01349646	         -3.67968739	         -1.07339826	          6.27013669	          0.01907909	          0.93846837	         -0.00715387	         30.64229343	         -2.25186773	         -3.93027361	         -9.72279079	          2.12767406	          0.21625353	        -14.36395024	         -3.46208788	         -0.32882832	        -12.38808410	         11.19016474	         31.20949100	        -13.44768209	         -0.63405101	         -4.09146543	          0.03323870	          0.15569915	          0.03917768	          0.05340901	          0.16510310	          0.05963276	          0.11537950	          0.11850562	          0.04610261	          0.02393829	          0.01000354	          0.01226140	          0.01225160	          0.49751857	          0.03163651	          0.01000388	          0.01001379	          0.02758382	          0.01950809	          0.02286705	          0.18350587	          0.01310418	          0.10022941	          0.01001383	          0.01000823	          0.11759329	          0.24960707	          0.01000164	
          0.02699291	         -3.73774043	         -1.12120274	          6.35812026	          0.03831660	          0.93681685	         -0.00563411	         30.32000119	         -2.10856708	         -4.15227594	        -11.00074051	          1.45022902	          0.20775317	        -14.82649804	         -3.73512382	         -0.62048263	        -13.43465657	         10.14562417	         33.09127105	        -12.97333820	         -0.21661320	         -4.37635242	          0.03589551	          0.12710824	          0.03198355	          0.10674191	          0.20891813	          0.04868903	          0.09419697	          0.13731255	          0.03763701	          0.01955247	          0.01004963	          0.01001184	          0.01000289	          0.56139518	          0.05409864	          0.01000276	          0.01000770	          0.02251873	          0.01593776	          0.01875737	          0.14981735	          0.01070172	          0.11255076	          0.01004496	          0.01001483	          0.09599967	          0.22095569	          0.01000158	
          0.04048937	         -3.78058612	         -1.15261415	          6.41500960	          0.05741771	          0.93578760	         -0.00404285	         30.12911557	         -1.98641735	         -4.38522549	        -12.49449847	          0.73993854	          0.15916356	        -14.99705987	         -3.99125571	         -0.91686876	        -14.96730780	          8.92759808	         34.98782880	        -12.52684172	          0.18301535	         -4.64206364	          0.04275921	          0.10376749	          0.02611053	          0.13222164	          0.26779779	          0.04698795	          0.07690450	          0.14022809	          0.03072600	          0.01597377	          0.06102834	          0.01000555	          0.01000244	          0.61125508	          0.07543564	          0.01000375	          0.01000579	          0.01838374	          0.08545283	          0.01988967	          0.12231706	          0.01001114	          0.12649675	          0.01001857	          0.01000786	          0.07837119	          0.18038219	          0.01000144	
          0.05398583	         -3.80871989	         -1.16473587	          6.44028117	          0.07628329	          0.93546931	         -0.00240803	         29.98330290	         -1.87833757	         -4.60406786	        -14.12391197	          0.35002250	          0.10459943	        -14.79019346	         -4.22593130	         -1.22450227	        -17.12143115	          7.56029727	         36.77786604	        -12.11475324	          0.56219397	         -4.88359726	          0.03493071	          0.08471284	          0.02131602	          0.15586621	          0.29064181	          0.04894045	          0.06278906	          0.14880492	          0.02508409	          0.01305572	          0.10447415	          0.01000993	          0.01000467	          0.61488487	          0.10185561	          0.01000419	          0.01000609	          0.01500805	          0.13774482	          0.01644082	          0.09987781	          0.01000326	          0.11037194	          0.01001021	          0.01000256	          0.06397982	          0.14725812	          0.01000123	
          0.06748228	         -3.82453256	         -1.15923941	          6.43137272	          0.09478071	          0.93595234	         -0.00076081	         29.78794665	         -1.76884367	         -4.76817745	        -15.72031118	          0.32997267	          0.05963506	        -14.13641306	         -4.44165454	         -1.55036039	        -19.98370759	          6.04229114	         38.28344519	        -11.74626775	          0.92410445	         -5.09438810	          0.02852185	          0.06915726	          0.01740200	          0.16810374	          0.30576144	          0.05093430	          0.05126792	          0.15193323	          0.02047825	          0.01068496	          0.13469607	          0.01000934	          0.01000357	          0.58421671	          0.11735499	          0.01000508	          0.01000881	          0.01225229	          0.18239718	          0.04032237	          0.08273176	          0.01000162	          0.09011574	          0.01000419	          0.01000096	          0.05223117	          0.12021663	          0.01000500	
          0.08097874	         -3.82982372	         -1.13421594	          6.38551899	          0.11280627	          0.93725405	          0.00086120	         29.48261872	         -1.65102223	         -4.85636384	        -17.14783629	          0.58896564	          0.03124456	        -13.00547917	         -4.64165466	         -1.91984246	        -23.58522712	          4.47264222	         39.07037458	        -11.42845344	          1.26978634	         -5.26842852	          0.02328740	          0.05645825	          0.01420688	          0.16943345	          0.31452784	          0.05489134	          0.04186678	          0.14359546	          0.01671823	          0.01004788	          0.14929706	          0.01001053	          0.01000354	          0.53260923	          0.11445448	          0.01000805	          0.01001057	          0.01000282	          0.21221398	          0.05188680	          0.06759280	          0.01000148	          0.07357207	          0.01000372	          0.01000083	          0.04264000	          0.09814086	          0.01000166	
          0.09447519	         -3.82526334	         -1.08350313	          6.29948485	          0.13034157	          0.93930109	          0.00242776	         29.02135542	         -1.52690232	         -4.86386773	        -18.30591858	          1.03543181	          0.03176399	        -11.40855421	         -4.83332120	         -2.33115611	        -27.88583433	          2.84439599	         38.90269482	        -11.16090381	          1.59552055	         -5.40044989	          0.01901354	          0.04609126	          0.01159894	          0.16660202	          0.30434850	          0.06188766	          0.03420341	          0.11728570	          0.01364879	          0.01003159	          0.18492613	          0.01000700	          0.01000206	          0.47448431	          0.10137642	          0.01000760	          0.02024845	          0.01000087	          0.24768237	          0.04261834	          0.06834178	          0.01000119	          0.06006526	          0.01000249	          0.01000052	          0.03481012	          0.08011895	          0.01001065	
          0.10797165	         -3.81271356	         -0.99834598	          6.16710798	          0.14737667	          0.94201029	          0.00391443	         28.34456987	         -1.40072349	         -4.78670285	        -19.07351748	          1.60984770	          0.10004623	         -9.39451815	         -5.01593940	         -2.76835148	        -32.72860644	          1.03835395	         37.74405365	        -10.94506273	          1.89411702	         -5.48659721	          0.01552505	          0.03762801	          0.01000392	          0.14866792	          0.27329585	          0.06412683	          0.02793953	          0.09575204	          0.01114351	          0.01002227	          0.21862202	          0.01001029	          0.01000252	          0.41460813	          0.08939717	          0.01483034	          0.06114128	          0.01000102	          0.28098257	          0.03480785	          0.06495383	          0.01000157	          0.04903876	          0.01000217	          0.01000044	          0.02841817	          0.06540648	          0.04408582	
          0.12146811	         -3.79471654	         -0.87063319	          5.98342174	          0.16384241	          0.94527377	          0.00531931	         27.44714663	         -1.28557762	         -4.63780723	        -19.41762290	          2.23688737	          0.26383946	         -7.03736397	         -5.18256167	         -3.19442133	        -37.94384177	         -0.79415391	         35.25762806	        -10.79318910	          2.15364364	         -5.52953653	          0.01267863	          0.03071897	          0.01000472	          0.13465711	          0.22312347	          0.06266058	          0.02281713	          0.07817397	          0.01000331	          0.01002035	          0.22460559	          0.01000678	          0.01000182	          0.36346703	          0.10483329	          0.04594962	          0.10315294	          0.01000080	          0.22939523	          0.02842115	          0.05688968	          0.01000142	          0.04003977	          0.01000297	          0.01000043	          0.02320033	          0.05339574	          0.11493621	
          0.13496456	         -3.77179832	         -0.70237606	          5.74996309	          0.17970583	          0.94889155	          0.00667181	         26.39163332	         -1.18990861	         -4.42592664	        -19.42206565	          2.81182824	          0.48420021	         -4.46565339	         -5.32040629	         -3.54940409	        -43.29005579	         -2.36471637	         31.24084068	        -10.71288575	          2.36366816	         -5.53375062	          0.01035642	          0.02507879	          0.01000370	          0.11502160	          0.18976468	          0.06208401	          0.01863219	          0.06483779	          0.01000327	          0.01001957	          0.21406803	          0.01000554	          0.01000191	          0.32230318	          0.12041257	          0.06196858	          0.14363771	          0.01000247	          0.18727240	          0.02320553	          0.04656582	          0.01000223	          0.03270122	          0.01000728	          0.01000054	          0.01894105	          0.04359060	          0.23703267	
